PathFileType	3	(X/Y/Z)	D:\minhoCalibration\240510\subject3_KPNP\preferred\preferred09.trc
DataRate	CameraRate	NumFrames	NumMarkers	Units	OrigDataRate	OrigDataStartFrame	OrigNumFrames
200.0	200.0	36	10	mm	200.0	173	116	
Frame#	Time	Left_Ankle_Outer1			Left_Ankle_Inner1			Left_Knee_Outer1			Left_Knee_Inner1			Left_Wrist1			Right_Wrist1			Right_Knee_Inner1			Right_Knee_Outer1			Right_Ankle_Inner1			Right_Ankle_Outer1			
		X1	Y1	Z1	X2	Y2	Z2	X3	Y3	Z3	X4	Y4	Z4	X5	Y5	Z5	X6	Y6	Z6	X7	Y7	Z7	X8	Y8	Z8	X9	Y9	Z9	X10	Y10	Z10	
173	0.855	-303.05264	130.67181	-511.16162	-354.47433	151.14005	-487.483	-143.05984	533.23682	-467.17792	-205.59845	552.9505	-387.32358	-159.43367	905.96674	-721.69043	-344.81735	1125.5265	-469.11768	-287.88251	981.1344	-78.625534	-304.34772	1088.1776	-116.91383	-681.38757	890.08173	78.484131	-702.07104	987.88104	85.982979
174	0.86	-302.92047	130.43074	-511.15607	-354.5654	150.54398	-487.92236	-144.01662	533.04126	-464.87277	-207.45958	552.52075	-385.35764	-163.61186	901.8045	-721.75348	-341.70972	1127.5869	-471.36621	-281.80344	989.33643	-81.669632	-297.43683	1092.8193	-122.56237	-654.72217	916.84863	128.55203	-672.04694	1014.8912	130.81389
175	0.865	-302.91913	130.17953	-510.91891	-354.66647	149.94795	-488.23962	-145.28027	532.81293	-462.1347	-209.75372	552.19891	-383.56467	-167.4922	897.50702	-720.84204	-340.04025	1129.4308	-473.51773	-277.73666	996.06647	-84.624519	-292.89487	1096.5975	-128.32161	-621.99518	944.22076	175.68011	-637.32239	1043.3662	173.25179
176	0.87	-302.82028	129.95332	-510.70316	-354.81204	149.51553	-488.39401	-146.42526	532.73608	-459.19452	-211.9765	552.17926	-381.47824	-170.65703	893.68604	-718.9649	-338.36371	1130.1062	-476.75677	-275.36728	1001.6237	-87.457687	-290.54816	1099.6083	-133.35197	-582.14136	970.47076	219.48799	-597.11255	1071.7954	210.97192
177	0.875	-302.86859	129.72919	-510.37396	-354.99481	149.06287	-488.49677	-147.60812	532.84692	-456.04514	-214.3651	552.11359	-379.36423	-173.03105	890.29675	-716.00543	-337.93716	1130.8428	-480.14618	-274.42484	1006.2618	-89.90757	-289.62872	1101.7009	-137.38628	-538.50153	998.42694	255.71854	-553.21637	1098.7877	243.07335
178	0.88	-303.23947	129.39603	-509.77795	-355.09283	148.72661	-488.42447	-148.77139	533.15137	-452.81741	-216.62337	551.83478	-378.24738	-174.97957	887.75	-711.80969	-338.41089	1131.9093	-483.23029	-274.34619	1010.1487	-91.483871	-290.50229	1103.3152	-139.76239	-486.81158	1024.8636	284.77905	-506.02127	1123.9781	268.34113
179	0.885	-303.3215	129.24944	-509.31293	-355.23923	148.42937	-488.24176	-150.02376	533.47852	-449.39795	-219.25485	552.22968	-374.99469	-176.17386	886.04327	-706.75403	-340.20624	1133.6168	-485.15262	-274.42557	1013.935	-92.603249	-292.73831	1104.0304	-141.44127	-430.63354	1049.218	306.02707	-455.98871	1145.2407	285.46161
180	0.89	-303.39752	129.14272	-508.76587	-355.26801	148.14246	-487.96909	-151.17851	533.99768	-446.0592	-221.53864	552.38855	-372.43384	-177.0352	885.27704	-700.76324	-342.7739	1136.0757	-485.92618	-274.3439	1017.4125	-93.963448	-297.26529	1104.2874	-142.70628	-376.3287	1069.2217	312.06049	-405.12836	1164.7448	291.42899
181	0.895	-304.20346	128.66815	-507.94589	-355.45749	147.89052	-487.76093	-152.48767	534.33417	-442.70691	-223.8894	552.21472	-369.8638	-177.40982	885.47345	-694.16278	-346.36868	1138.848	-486.05527	-273.03677	1020.0313	-95.610962	-303.94232	1106.1367	-142.9915	-351.04251	1084.0349	312.91956	-371.56747	1182.8499	285.5304
182	0.9	-303.81464	129.30789	-508.1463	-355.65186	147.72249	-487.69009	-153.63687	534.88843	-439.31223	-225.74867	551.98193	-367.74573	-177.7366	886.18866	-687.0957	-350.7807	1141.4203	-486.04816	-269.97873	1021.2354	-97.369438	-309.55753	1112.1066	-143.83328	-349.9147	1094.1329	314.96677	-354.19159	1187.8511	279.7886
183	0.905	-303.89941	129.29675	-508.12036	-355.93668	147.18965	-487.61789	-154.71417	535.14325	-435.6868	-228.27611	552.12073	-363.41641	-177.64824	887.41388	-680.00665	-355.18948	1142.7129	-485.93387	-264.23523	1021.7938	-98.042488	-313.7402	1118.0613	-144.62454	-352.64484	1095.3224	311.26505	-351.39203	1195.3787	279.16412
184	0.91	-303.65549	129.07701	-508.16376	-355.85074	146.87424	-487.99072	-155.65984	535.62024	-431.92661	-229.68161	551.43121	-360.79108	-177.0966	888.92529	-672.91089	-359.42807	1143.4392	-485.51297	-255.89543	1025.9142	-98.361252	-313.80533	1123.2982	-145.86986	-350.63977	1087.8119	304.75839	-353.70911	1191.738	282.65363
185	0.915	-303.04333	128.91252	-508.11255	-355.4794	146.43741	-488.68878	-157.25174	535.85779	-427.95703	-231.74344	550.97064	-356.953	-175.8472	890.57086	-666.07941	-364.55667	1143.6243	-484.68082	-245.65317	1032.8074	-99.250862	-305.97723	1128.0015	-146.52058	-347.34421	1079.7311	303.76682	-357.97345	1183.3502	285.20746
186	0.92	-301.86047	128.72478	-508.10635	-354.86868	145.97246	-489.58398	-159.15114	535.95721	-424.026	-233.71927	549.79675	-354.42157	-174.59639	892.01544	-659.39728	-367.96637	1142.8379	-483.50903	-237.3709	1041.1215	-101.55319	-293.80316	1132.309	-144.2921	-343.93414	1072.8374	306.13034	-363.34045	1172.8949	288.82578
187	0.925	-300.68375	128.34323	-507.98511	-353.82239	145.38797	-490.69778	-161.36786	535.90454	-420.26077	-235.90387	549.18555	-350.49362	-172.89302	893.49585	-653.27588	-372.52744	1142.4705	-482.46243	-232.56842	1049.4906	-104.51365	-280.60342	1132.7933	-142.03854	-338.2605	1066.746	305.7941	-367.67801	1163.6113	292.10468
188	0.93	-299.25403	127.86415	-508.14999	-353.09909	144.71593	-491.77097	-163.80289	535.86945	-416.39163	-238.64453	548.13281	-347.93719	-171.38852	894.73621	-647.48969	-377.06693	1141.3419	-480.52383	-232.13045	1055.6384	-106.05513	-269.44025	1131.062	-143.73051	-334.03275	1059.9073	305.5451	-367.6387	1155.1182	293.44104
189	0.935	-297.41812	127.71334	-508.38602	-352.13773	143.88571	-493.19464	-166.33231	535.62427	-412.66745	-241.7083	547.06982	-346.32935	-170.04442	895.64954	-642.2677	-381.73434	1139.3953	-478.19843	-236.07396	1056.9867	-104.42121	-265.38617	1127.1219	-148.47011	-330.57587	1052.0348	305.40186	-365.37009	1147.3008	294.96844
190	0.94	-297.30637	126.70052	-508.01706	-351.49625	142.97293	-494.53354	-168.78955	535.30609	-409.18286	-246.47136	546.48639	-344.3764	-168.69238	896.28253	-637.56897	-386.51642	1138.1079	-476.89581	-240.90417	1054.4211	-101.97089	-270.80988	1124.4043	-150.3044	-326.78629	1046.5077	308.68051	-363.4845	1139.8392	297.95105
191	0.945	-296.42178	126.19159	-508.22775	-351.02878	142.27696	-495.68729	-171.37015	535.09857	-405.87238	-250.86325	545.5885	-344.57779	-167.12825	896.71332	-633.72577	-390.74857	1136.0912	-474.54669	-245.57401	1049.7617	-100.51237	-280.84473	1126.6393	-148.66393	-323.9855	1039.9126	309.37027	-363.1701	1133.4473	301.44681
192	0.95	-296.00626	125.75494	-508.32993	-350.76239	141.61952	-496.49066	-173.82947	534.81909	-402.81708	-255.89937	545.47784	-343.0827	-166.05992	896.61328	-630.07465	-393.80417	1134.0677	-471.20316	-248.24522	1044.9017	-100.37825	-292.35297	1128.8289	-145.24438	-319.19559	1034.7715	310.01706	-362.9494	1127.7439	303.82187
193	0.955	-296.31686	125.20069	-507.97034	-350.71716	141.25079	-497.13895	-175.92487	534.61871	-400.15094	-260.55994	545.0564	-343.11566	-164.83615	896.34503	-626.60541	-398.13937	1131.6744	-469.01248	-251.20694	1040.4052	-99.914879	-303.89578	1128.1592	-141.51723	-317.01715	1029.0975	308.64551	-363.49652	1122.0349	305.52689
194	0.96	-296.10452	125.32214	-508.27969	-351.13724	140.8555	-497.46674	-177.96689	534.52557	-397.72003	-264.6142	544.62543	-344.15576	-163.68465	895.83679	-623.33234	-401.93738	1129.8021	-466.20316	-254.30614	1037.1193	-99.1642	-315.30841	1123.8427	-137.75403	-313.40732	1023.5393	307.42575	-364.17538	1115.2445	306.90564
195	0.965	-296.81604	124.95595	-508.07422	-351.69107	140.46165	-497.72995	-179.40877	534.56525	-395.78064	-268.18661	544.54291	-344.67969	-162.69461	895.35516	-620.14325	-404.96182	1127.3293	-463.64264	-257.70712	1035.007	-98.446892	-325.09036	1117.3466	-134.13576	-309.29672	1017.7916	306.10211	-364.58163	1107.7966	308.61523
196	0.97	-297.40433	124.77217	-508.10941	-352.45844	140.16167	-497.9744	-180.88503	534.49512	-394.23816	-271.11349	544.71533	-345.12677	-161.50717	895.2019	-617.43182	-408.24707	1125.1119	-461.23987	-261.31952	1032.9542	-97.906853	-334.57602	1109.5175	-130.00772	-305.28497	1011.8686	304.80585	-365.55832	1099.6887	310.47864
197	0.975	-298.25378	124.62852	-508.1709	-353.29935	139.7477	-498.16705	-182.87239	534.40784	-392.755	-273.87326	544.99554	-345.62598	-160.61884	895.29797	-614.96088	-411.77786	1122.8583	-459.45807	-265.06122	1029.8372	-97.579674	-342.10544	1102.0813	-127.19614	-302.72943	1009.788	322.12881	-366.64728	1090.2629	312.40854
198	0.98	-299.14874	124.39908	-508.27121	-354.18378	139.43576	-498.43869	-184.50999	534.62128	-391.95068	-275.61945	545.83112	-345.83072	-159.97015	895.63434	-612.70605	-414.95963	1120.549	-458.65717	-269.11444	1025.4805	-97.125534	-348.12552	1095.3203	-125.6388	-298.2243	1001.5637	317.91489	-368.32416	1078.9601	314.36038
199	0.985	-300.05029	124.04932	-508.36127	-355.11893	139.02692	-498.67575	-185.64902	534.81989	-391.8652	-277.13113	545.67932	-346.55566	-159.19464	896.33246	-610.75616	-418.09415	1118.2249	-458.6532	-273.52563	1020.4868	-96.526573	-353.92456	1089.363	-124.13457	-295.5271	991.18787	313.22824	-370.63724	1065.9873	316.03247
200	0.99	-301.052	123.71663	-508.48834	-356.18109	138.5356	-498.94742	-186.5145	535.07947	-392.26132	-278.25604	545.89594	-347.07623	-158.41234	897.33258	-608.90863	-421.0069	1115.8962	-459.15021	-278.24771	1015.1912	-95.750221	-359.27805	1082.8887	-123.11737	-293.28006	979.50922	307.92014	-373.00262	1051.4298	316.85556
201	0.995	-302.55972	123.35386	-508.44257	-357.31302	138.09999	-499.19199	-187.27249	535.54114	-392.85211	-279.23642	545.99945	-347.87665	-157.56003	898.67969	-607.25549	-424.27359	1113.5355	-459.74521	-282.70233	1009.8466	-94.994629	-365.64905	1075.955	-121.37395	-290.96628	967.67078	302.60855	-375.96317	1035.5493	317.43958
202	1	-303.10873	123.34023	-509.03751	-358.42493	137.65668	-499.45404	-187.88322	535.88562	-393.79678	-279.85751	545.94019	-348.82584	-156.72374	900.21692	-605.76196	-427.15491	1111.2107	-460.4545	-286.56668	1004.8002	-94.275429	-372.24054	1069.2683	-119.32356	-291.88156	955.39868	303.27545	-379.57986	1018.6429	317.71329
203	1.005	-304.19708	123.14046	-509.41974	-359.47083	137.09895	-499.83093	-188.29097	535.97668	-395.02454	-280.26395	545.80927	-349.83832	-155.61441	902.08911	-604.61145	-430.51071	1108.7933	-461.17505	-289.42215	1000.0851	-94.148766	-378.78259	1062.2747	-117.1209	-292.66522	941.69232	301.47781	-383.18179	1000.8017	316.87344
204	1.01	-305.18295	122.66035	-509.95462	-360.58893	136.61603	-500.21637	-188.5903	535.97485	-396.44336	-280.50473	545.49658	-350.88922	-154.67149	904.00482	-603.44427	-433.8891	1105.6736	-461.38986	-291.62085	995.63586	-94.402489	-384.14072	1055.3419	-115.01518	-295.12939	927.35315	301.53937	-388.03433	982.49066	315.8483
205	1.015	-306.5274	121.92222	-510.32584	-361.52325	136.07529	-500.66562	-189.06744	535.75482	-397.82034	-280.41867	544.92651	-352.06876	-153.48	906.09369	-602.32294	-437.23166	1102.3578	-461.55453	-294.42456	990.87292	-93.700134	-388.70541	1047.7717	-112.85014	-299.26306	911.5863	299.35565	-393.66299	963.3559	313.84265
206	1.02	-306.49002	121.7457	-511.51575	-362.26321	135.53525	-501.40005	-189.48286	535.06818	-399.42801	-280.14948	544.17871	-353.29074	-152.34526	907.94159	-601.09607	-440.90213	1098.8944	-461.69836	-296.18231	985.93848	-94.160423	-392.3475	1040.5007	-111.1057	-304.20157	894.03381	296.89847	-400.09436	943.3111	311.4122
207	1.025	-307.32919	120.63258	-512.15424	-362.91095	134.62939	-501.95242	-189.74297	534.25891	-401.28992	-279.74814	543.2196	-354.62036	-151.26411	909.85693	-599.82385	-444.82336	1095.0574	-461.85617	-298.19879	980.75928	-94.847786	-395.31918	1032.9301	-109.84689	-309.74399	874.68372	293.92712	-407.12119	922.3219	308.37268
208	1.03	-307.69208	119.66235	-513.01788	-363.19141	133.53746	-502.84714	-189.7653	533.24854	-403.35913	-279.40292	542.06079	-356.30023	-150.23225	911.59351	-598.39655	-448.81201	1090.9943	-462.0907	-300.22018	975.35553	-95.673119	-397.78461	1026.255	-109.03848	-316.20642	855.36053	289.78348	-414.19382	900.45496	304.14679
